<svg width="1205" height="1470" viewBox="0 0 1205 1470" fill="none" xmlns="http://www.w3.org/2000/svg">
<path d="M1133 738.008L1076.87 854.456C1073.7 860.847 1067.11 865.256 1059.49 865.256C1049.32 865.256 1040.99 857.43 1040.17 847.484L1005.28 451.48L930.573 778.36C928.948 785.026 923.39 789.993 916.588 790.879C909.795 791.755 903.151 788.369 899.881 782.336L863.442 715.11C845.428 738.841 810.528 772.021 748.555 772.021H451.797L455.857 738.851H748.555C810.718 738.851 837.233 696.042 847.21 679.936C850.321 674.916 852.188 671.889 855.901 669.432C859.782 666.869 864.57 666.046 869.074 667.175C873.588 668.303 877.416 671.277 879.631 675.37L908.53 728.695L989.224 381.006C991.681 370.934 1000.95 364.184 1011.37 364.827C1021.71 365.544 1030.02 373.613 1031.05 383.928L1068.76 800.224L1117.61 695.841C1120.03 691.211 1124.49 687.994 1129.65 687.151C1134.81 686.317 1140.05 687.952 1143.81 691.58C1147.02 694.66 1149.1 698.689 1152.27 704.785C1158.45 716.692 1169.96 738.851 1184.93 738.851H1204.19V0H8.32151V1195.87H1204.19V772.021H1184.93C1159.97 772.021 1143.55 754.313 1133 738.008ZM1171.43 1386.05L1171.47 1385.67C1173.94 1365.59 1161.39 1352.41 1145.44 1352.41C1129.11 1352.41 1113.98 1365 1111.44 1385.67L1111.4 1386.05C1108.93 1406.14 1121.08 1419.33 1137.23 1419.33C1153.16 1419.33 1168.98 1405.93 1171.43 1386.05ZM1087.38 1386.05L1087.43 1385.67C1091.66 1351.23 1117.47 1331.74 1142.27 1331.74C1159.4 1331.74 1169.19 1340.21 1175.46 1350.04L1177.43 1333.91H1201.25L1188.5 1437.81H1164.68L1166.8 1420.5C1157.81 1431.32 1145.92 1439.99 1128.98 1439.99C1104.59 1439.99 1083.15 1420.5 1087.38 1386.05ZM1048.82 1386.05L1048.87 1385.67C1051.33 1365.59 1039.36 1352.41 1023.23 1352.41C1007.09 1352.41 991.27 1365.79 988.823 1385.67L988.781 1386.05C986.345 1405.93 998.864 1419.33 1015.01 1419.33C1031.35 1419.33 1046.3 1406.52 1048.82 1386.05ZM971.959 1333.91H995.773L993.654 1351.24C1002.66 1340.4 1014.55 1331.74 1031.46 1331.74C1055.88 1331.74 1077.32 1351.03 1073.07 1385.67L1073.03 1386.05C1068.79 1420.5 1042.78 1439.99 1018.18 1439.99C1000.87 1439.99 991.101 1431.32 985.005 1421.68L979.152 1469.31H955.326L971.959 1333.91ZM845.565 1400.02L853.686 1333.91H877.501L870.255 1392.95C868.272 1409.08 875.223 1418.13 889.398 1418.13C903.172 1418.13 913.982 1408.69 915.955 1392.55L923.158 1333.91H947.173L934.422 1437.81H910.407L912.379 1421.68C904.49 1431.52 893.806 1439.99 877.659 1439.99C854.245 1439.99 842.591 1424.24 845.565 1400.02ZM802.681 1339.02C804.01 1328.21 796.174 1321.5 780.617 1321.5H745.781L741.298 1358.12H774.352C789.909 1358.12 801.078 1352.02 802.639 1339.41L802.681 1339.02ZM777.158 1378.58H738.778L734.137 1416.36H774.278C790.826 1416.36 801.658 1409.88 803.187 1397.47L803.23 1397.07C804.653 1385.47 796.248 1378.58 777.158 1378.58ZM724.613 1300.06H786.407C802.154 1300.06 814.019 1304.39 820.917 1312.26C826.285 1318.36 828.5 1325.84 827.371 1335.09L827.329 1335.48C825.283 1352.02 814.757 1360.87 803.873 1366.18C819.335 1371.7 829.428 1380.95 827.129 1399.63L827.076 1400.02C824.06 1424.63 802.164 1437.81 771.462 1437.81H707.696L724.613 1300.06ZM597.291 1354.37H584.108L586.554 1334.51H599.738L600.687 1326.83C602.079 1315.41 606.098 1306.76 612.289 1301.24C618.469 1295.74 626.485 1292.97 636.726 1292.97C644.995 1292.97 650.553 1294.16 655.668 1295.74L653.211 1315.81C648.676 1314.24 644.668 1313.25 639.552 1313.25C630.503 1313.25 625.167 1318.17 623.838 1328.99L623.131 1334.7H650.701L648.275 1354.37H621.106L610.865 1437.81H587.061L597.291 1354.37ZM544.947 1386.45L545 1386.05C547.246 1367.76 535.919 1352.61 517.219 1352.61C498.129 1352.61 484.091 1367.56 481.866 1385.67L481.824 1386.05C479.598 1404.16 490.926 1419.33 509.425 1419.33C528.715 1419.33 542.743 1404.37 544.947 1386.45ZM457.956 1386.45L458.009 1386.05C461.658 1356.35 488.289 1331.74 520.183 1331.74C552.066 1331.74 572.527 1355.95 568.867 1385.67L568.825 1386.05C565.197 1415.58 538.556 1440.18 506.472 1440.18C474.779 1440.18 454.339 1415.97 457.956 1386.45ZM335.718 1409.08L342.436 1354.37H329.253L331.763 1333.91H344.946L348.448 1305.38H372.263L368.761 1333.91H396.721L394.2 1354.37H366.251L359.997 1405.34C358.858 1414.59 363.129 1418.33 371.198 1418.33C376.513 1418.33 381.386 1417.15 386.396 1414.79L384.012 1434.28C377.684 1437.62 370.955 1439.58 361.906 1439.58C344.387 1439.58 332.923 1431.91 335.718 1409.08ZM263.672 1333.91H287.498L284.629 1357.33C293.024 1341.79 306.334 1331.15 324.549 1331.93L321.448 1357.13H320.066C299.215 1357.13 282.983 1370.72 279.598 1398.26L274.746 1437.81H250.921L263.672 1333.91ZM208.87 1386.05L208.913 1385.67C211.381 1365.59 198.83 1352.41 182.883 1352.41C166.546 1352.41 151.432 1365 148.89 1385.67L148.848 1386.05C146.37 1406.14 158.53 1419.33 174.667 1419.33C190.614 1419.33 206.434 1405.93 208.87 1386.05ZM124.822 1386.05L124.865 1385.67C129.104 1351.23 154.913 1331.74 179.708 1331.74C196.837 1331.74 206.624 1340.21 212.899 1350.04L214.872 1333.91H238.687L225.935 1437.81H202.12L204.251 1420.5C195.244 1431.32 183.358 1439.99 166.43 1439.99C142.024 1439.99 120.593 1420.5 124.822 1386.05ZM60.4758 1371.7C78.7747 1371.7 91.4415 1361.45 93.2029 1347.1L93.2556 1346.7C95.2384 1330.57 84.6704 1322.1 66.5614 1322.1H38.4118L32.3262 1371.7H60.4758ZM16.9172 1300.06H71.2337C103.518 1300.06 121.342 1318.36 117.935 1346.11L117.883 1346.5C114.096 1377.4 87.3072 1393.54 57.006 1393.54H29.6368L24.2052 1437.81H0L16.9172 1300.06Z" fill="#0079C8"/>
<path d="M593.117 625.805C626.593 625.805 654.817 609.067 658.962 575.296L659.036 574.684C662.59 545.786 637.404 535.123 614.876 527.825C596.756 521.75 580.008 516.877 581.474 505.001L581.537 504.389C582.666 495.266 591.694 488.569 605.995 488.569C619.379 488.569 635.115 494.359 649.48 503.788L667.294 477.621C651.642 466.357 630.591 459.365 610.499 459.365C578.552 459.365 551.004 477.927 547.27 508.345L547.196 508.956C543.421 539.69 568.712 549.435 591.62 556.132C609.771 561.902 626.298 566.173 624.769 578.639L624.684 579.251C623.387 589.904 613.441 596.59 597.61 596.59C581.178 596.59 563.439 589.904 547.397 576.815L527.885 601.769C546.026 617.6 570.294 625.805 593.117 625.805ZM415.329 626.111C440.283 626.111 456.799 613.033 469.002 597.814L465.943 622.768H503.079L522.801 462.107H485.666L474.539 552.779C471.48 577.722 454.785 592.34 433.469 592.34C411.563 592.34 400.795 578.334 403.864 553.39L415.065 462.107H378.246L365.695 564.348C361.097 601.769 379.111 626.111 415.329 626.111ZM286.087 622.768H322.917L350.191 400.629H313.361L286.087 622.768ZM145.539 520.526L154.958 443.84H198.485C226.476 443.84 242.824 456.918 239.755 481.882L239.681 482.484C236.949 504.706 217.374 520.526 189.066 520.526H145.539ZM95.5577 622.768H132.989L141.394 554.297H183.698C230.568 554.297 271.975 529.343 277.84 481.577L277.913 480.965C283.187 438.06 255.617 409.763 205.709 409.763H121.714L95.5577 622.768ZM628.65 250.515C635.073 225.561 653.034 208.212 675.541 208.212C699.894 208.212 711.601 226.785 711.127 250.515H628.65ZM662.917 345.754C692.438 345.754 714.902 333.888 732.347 315.632L713.099 296.458C698.787 308.935 685.181 315.632 667.22 315.632C643.479 315.632 626.72 301.024 625.971 274.858H744.054C744.813 271.208 745.52 267.865 745.931 264.511C751.606 218.252 730.68 178.09 679.549 178.09C633.596 178.09 596.408 215.827 590.755 261.769L590.692 262.381C584.596 311.972 616.352 345.754 662.917 345.754ZM480.16 342.105H516.98L524.489 280.943C529.72 238.344 554.811 217.335 587.074 217.335H589.205L593.982 178.396C565.833 177.172 545.256 193.604 532.251 217.651L536.702 181.444H499.883L480.16 342.105ZM365.263 313.501C340.309 313.501 321.514 293.114 325.322 262.075L325.395 261.463C329.319 229.517 352.701 210.036 377.972 210.036C402.62 210.036 422.015 230.434 418.208 261.463L418.134 262.075C414.358 292.808 389.911 313.501 365.263 313.501ZM352.522 345.458C378.689 345.458 397.061 332.053 410.983 315.337L407.703 342.105H444.522L464.245 181.444H427.426L424.357 206.387C414.664 191.168 399.54 178.09 373.067 178.09C334.719 178.09 294.809 208.212 288.27 261.463L288.197 262.075C281.657 315.337 314.775 345.458 352.522 345.458ZM184.468 345.754C224.335 345.754 250.47 331.157 275.53 308.017L254.478 283.685C234.123 300.729 216.119 311.065 189.942 311.065C149.168 311.065 123.792 277.294 128.907 235.602L128.981 234.99C134.107 193.299 168.025 159.833 208.504 159.833C232.857 159.833 249.816 170.486 264.909 186.306L292.352 158.62C274.348 139.14 252.295 125.45 213.039 125.45C148.524 125.45 97.087 175.042 89.6515 235.602L89.5776 236.214C82.0683 297.375 122.378 345.754 184.468 345.754ZM1203.91 738.847V772.017L1184.64 772.006C1159.69 772.006 1143.25 754.298 1132.71 738.003L1076.58 854.44C1073.41 860.842 1066.82 865.241 1059.19 865.241C1049.03 865.241 1040.7 857.425 1039.87 847.469L1004.98 451.476L930.28 778.345C928.667 785.01 923.098 789.988 916.295 790.874C909.513 791.75 902.858 788.354 899.589 782.331L863.149 715.095C845.135 738.836 810.236 772.006 748.273 772.006H451.504L455.565 738.847H748.273C810.425 738.847 836.94 696.037 846.918 679.921C850.029 674.911 851.896 671.884 855.608 669.427C859.49 666.854 864.288 666.042 868.781 667.17C873.295 668.299 877.124 671.273 879.339 675.354L908.248 728.679L988.932 381.001C991.389 370.929 1000.66 364.169 1011.08 364.812C1021.42 365.54 1029.73 373.608 1030.76 383.912L1068.47 800.219L1117.32 695.836C1119.73 691.206 1124.2 687.99 1129.35 687.146C1134.52 686.302 1139.76 687.947 1143.52 691.565C1146.72 694.655 1148.81 698.684 1151.98 704.78C1158.16 716.677 1169.66 738.847 1184.64 738.847H1203.91Z" fill="white"/>
</svg>
